<svg width="32" height="32" viewBox="0 0 32 32" fill="none" xmlns="http://www.w3.org/2000/svg">
<mask id="mask0_9075_6493" style="mask-type:alpha" maskUnits="userSpaceOnUse" x="0" y="0" width="32" height="32">
<circle cx="16" cy="16" r="16" fill="#2B5AFE"/>
</mask>
<g mask="url(#mask0_9075_6493)">
<circle cx="16" cy="16" r="16" fill="#2B5AFE"/>
<path fill-rule="evenodd" clip-rule="evenodd" d="M15.5 16.0122C15.5 21.842 12.6465 27.1301 7.5 29.4497C7.46211 29.4668 7.4241 29.4837 7.38597 29.5005C5.4125 30.3674 4 30.6668 0.5 30.6668L0 25.782C0.997064 25.7071 1.91177 25.5747 2.75349 25.3927C2.75349 25.3927 2.91853 25.3564 3 25.3375C7.48527 24.2986 9.85289 21.8258 11.5943 19.1769L6 19.1763L7.5 16.0122H15.5ZM30.5 1.35747L32 5.2654C28 5.2654 21.3162 8.01837 19.7671 12.8481H25L23.5 16.0122H15.5C15.5 7.91862 21 0.868885 30.5 1.35747Z" fill="white"/>
</g>
</svg>
